<svg width="552" height="953" viewBox="0 0 552 953" fill="none" xmlns="http://www.w3.org/2000/svg">
<g clip-path="url(#clip0_11_886)">
<g clip-path="url(#clip1_11_886)">
<g opacity="0.23">
<path d="M151.628 95.473H246.601V158.911H151.628" stroke="#CECDC1"/>
<path d="M341.574 45.97V95.47H246.601V0.5" stroke="#CECDC1"/>
<path d="M198.932 9.66694C196.857 9.65137 194.8 10.0486 192.879 10.8355C190.959 11.6224 189.215 12.7833 187.748 14.2506C186.28 15.7179 185.119 17.4623 184.333 19.3824C183.546 21.3025 183.148 23.3599 183.164 25.4349V57.3349C183.148 59.41 183.546 61.4674 184.333 63.3875C185.119 65.3076 186.28 67.052 187.748 68.5193C189.215 69.9866 190.959 71.1475 192.879 71.9344C194.8 72.7213 196.857 73.1185 198.932 73.1029C201.007 73.1184 203.064 72.7211 204.984 71.9343C206.904 71.1475 208.648 69.9867 210.115 68.5197C211.582 67.0526 212.743 65.3084 213.53 63.3886C214.317 61.4688 214.714 59.4117 214.699 57.3369V25.8009C214.744 21.5717 213.109 17.4973 210.153 14.4724C207.197 11.4474 203.161 9.71916 198.932 9.66694Z" stroke="#CECDC1"/>
<path d="M70.9561 63.571H151.628" stroke="#CECDC1"/>
<path d="M341.574 159.277H405.012V222.715" stroke="#CECDC1"/>
<path d="M341.574 317.688V222.715H436.914V317.688" stroke="#CECDC1"/>
<path d="M389.244 222.715C382.98 222.702 376.776 223.927 370.987 226.318C365.197 228.709 359.937 232.22 355.508 236.649C351.079 241.078 347.568 246.338 345.177 252.128C342.786 257.917 341.561 264.121 341.574 270.385C341.569 276.629 342.801 282.812 345.2 288.577C347.598 294.343 351.115 299.575 355.548 303.973C359.98 308.371 365.24 311.848 371.024 314.201C376.807 316.555 383 317.739 389.244 317.685C401.837 317.73 413.932 312.773 422.871 303.903C431.81 295.034 436.861 282.978 436.914 270.385C436.547 243.983 415.274 222.715 389.244 222.715Z" stroke="#CECDC1"/>
<path d="M341.574 159.277L405.012 190.812" stroke="#CECDC1"/>
<path d="M151.262 206.581L198.932 158.911L246.602 206.581" stroke="#CECDC1"/>
<path d="M246.602 254.251H151.262V158.911" stroke="#CECDC1"/>
<path d="M215.066 111.607H183.166C181.091 111.591 179.033 111.988 177.113 112.775C175.192 113.562 173.448 114.723 171.98 116.19C170.513 117.657 169.352 119.402 168.565 121.322C167.778 123.242 167.38 125.3 167.396 127.375C167.38 129.45 167.778 131.507 168.565 133.428C169.351 135.348 170.512 137.092 171.98 138.559C173.447 140.027 175.191 141.188 177.111 141.974C179.032 142.761 181.089 143.159 183.164 143.143H215.064C217.139 143.159 219.196 142.761 221.116 141.974C223.037 141.188 224.781 140.027 226.248 138.559C227.716 137.092 228.877 135.348 229.663 133.428C230.45 131.507 230.848 129.45 230.832 127.375C230.848 125.3 230.45 123.243 229.664 121.323C228.877 119.403 227.716 117.659 226.249 116.191C224.782 114.724 223.038 113.563 221.118 112.776C219.198 111.989 217.141 111.592 215.066 111.607Z" stroke="#CECDC1"/>
<path d="M56.289 380.392V316.954L-7.14905 380.392" stroke="#CECDC1"/>
<path d="M198.931 158.911V254.251" stroke="#CECDC1"/>
<path d="M151.262 444.563H56.2889M56.2889 397.263L103.959 350.323L151.259 397.259" stroke="#CECDC1"/>
<path d="M24.386 381.123V349.223H56.286" stroke="#CECDC1"/>
<path d="M-39.051 381.125H56.289V476.098" stroke="#CECDC1"/>
<path d="M8.61905 381.125C16.5832 381.159 24.2114 384.338 29.843 389.97C35.4745 395.602 38.6536 403.23 38.688 411.194V446.394C38.7109 450.357 37.95 454.286 36.4492 457.954C34.9483 461.622 32.7371 464.957 29.9427 467.768C27.1484 470.579 23.8259 472.809 20.1665 474.331C16.5071 475.853 12.5828 476.636 8.61953 476.636C4.65623 476.636 0.732027 475.853 -2.9274 474.331C-6.58683 472.809 -9.90929 470.579 -12.7037 467.768C-15.4981 464.957 -17.7093 461.622 -19.2101 457.954C-20.7109 454.286 -21.4718 450.357 -21.449 446.394V411.194C-21.4622 407.242 -20.6935 403.326 -19.1871 399.672C-17.6807 396.018 -15.4664 392.698 -12.6718 389.903C-9.87706 387.108 -6.55716 384.894 -2.90317 383.387C0.750816 381.881 4.66671 381.112 8.61905 381.125Z" stroke="#CECDC1"/>
<path d="M87.824 476.099V412.661H151.262" stroke="#CECDC1"/>
<path d="M87.824 476.098L151.262 444.563" stroke="#CECDC1"/>
<path d="M103.959 350.323L103.592 412.66" stroke="#CECDC1"/>
<path d="M341.574 364.988L389.244 317.688L436.914 365.358V412.658H341.574" stroke="#CECDC1"/>
<path d="M341.574 412.661V317.688H436.914" stroke="#CECDC1"/>
<path d="M246.602 412.661V476.099H183.164" stroke="#CECDC1"/>
<path d="M183.162 476.098H151.262V444.563" stroke="#CECDC1"/>
<path d="M198.932 412.661C196.857 412.645 194.8 413.043 192.879 413.83C190.959 414.616 189.215 415.777 187.748 417.245C186.28 418.712 185.119 420.456 184.333 422.376C183.546 424.297 183.148 426.354 183.164 428.429V460.329C183.148 462.404 183.546 464.461 184.333 466.381C185.119 468.302 186.28 470.046 187.748 471.513C189.215 472.981 190.959 474.142 192.879 474.928C194.8 475.715 196.857 476.113 198.932 476.097C201.007 476.113 203.064 475.715 204.985 474.928C206.905 474.142 208.649 472.981 210.116 471.513C211.584 470.046 212.745 468.302 213.531 466.381C214.318 464.461 214.716 462.404 214.7 460.329V428.429C214.669 424.256 212.998 420.264 210.048 417.313C207.097 414.363 203.104 412.692 198.932 412.661Z" stroke="#CECDC1"/>
<path d="M278.137 159.278V95.84" stroke="#CECDC1"/>
<path d="M246.601 127.375H278.136" stroke="#CECDC1"/>
<path d="M341.575 95.84V159.278L278.137 127.375" stroke="#CECDC1"/>
<path d="M389.244 317.688V421.462" stroke="#CECDC1"/>
<path d="M-39.051 523.765L8.61897 476.465L55.919 524.135M56.286 571.435H-38.684" stroke="#CECDC1"/>
<path d="M-39.051 576.205V476.098H56.289V571.438" stroke="#CECDC1"/>
<path d="M56.289 571.438V634.876H50.4209M-7.14905 579.506V571.438" stroke="#CECDC1"/>
<path d="M8.61902 476.098V571.438" stroke="#CECDC1"/>
<path d="M436.914 349.223V364.991M476.883 412.661H531.883V349.223" stroke="#CECDC1"/>
<path d="M341.574 254.25H246.601V159.277H341.574V221.977" stroke="#CECDC1"/>
<path d="M246.601 286.153C246.585 284.078 246.983 282.021 247.77 280.1C248.556 278.18 249.717 276.436 251.185 274.969C252.652 273.501 254.396 272.34 256.316 271.554C258.237 270.767 260.294 270.369 262.369 270.385H294.269C296.35 270.368 298.414 270.764 300.342 271.549C302.269 272.334 304.022 273.493 305.5 274.959C306.977 276.424 308.15 278.168 308.95 280.089C309.751 282.011 310.163 284.071 310.163 286.153C310.163 288.234 309.751 290.294 308.95 292.216C308.15 294.137 306.977 295.881 305.5 297.346C304.022 298.812 302.269 299.971 300.342 300.756C298.414 301.541 296.35 301.937 294.269 301.92H262.369C258.197 301.889 254.204 300.218 251.253 297.268C248.303 294.318 246.632 290.325 246.601 286.153Z" stroke="#CECDC1"/>
<path d="M278.137 159.277V270.018" stroke="#CECDC1"/>
<path d="M246.601 539.536V523.398L294.271 476.098L341.941 523.768M341.574 571.438H246.601" stroke="#CECDC1"/>
<path d="M56.2889 539.536H151.262" stroke="#CECDC1"/>
<path d="M151.262 539.536H246.602V634.876H151.262" stroke="#CECDC1"/>
<path d="M246.601 524.502V476.465H321.401M341.569 500.3V571.438" stroke="#CECDC1"/>
<path d="M151.262 571.438H87.824V634.876H151.262V571.438Z" stroke="#CECDC1"/>
<path d="M56.289 602.973H88.189M87.822 634.873H55.922" stroke="#CECDC1"/>
<path d="M87.8239 571.438H56.2889M56.2889 476.098H151.262V571.071" stroke="#CECDC1"/>
<path d="M198.931 539.536C194.403 539.531 189.918 540.419 185.734 542.149C181.55 543.879 177.748 546.418 174.546 549.62C171.344 552.822 168.805 556.624 167.075 560.808C165.345 564.992 164.457 569.477 164.462 574.005V600.405C164.457 604.933 165.345 609.418 167.075 613.602C168.805 617.786 171.344 621.588 174.546 624.79C177.748 627.992 181.55 630.531 185.734 632.261C189.918 633.991 194.403 634.879 198.931 634.874C203.459 634.879 207.944 633.991 212.128 632.261C216.312 630.531 220.114 627.992 223.316 624.79C226.518 621.588 229.056 617.786 230.787 613.602C232.517 609.418 233.405 604.933 233.4 600.405V574.005C233.405 569.477 232.517 564.992 230.787 560.808C229.056 556.624 226.518 552.822 223.316 549.62C220.114 546.418 216.312 543.879 212.128 542.149C207.944 540.419 203.459 539.531 198.931 539.536Z" stroke="#CECDC1"/>
<path d="M151.262 634.875L87.824 602.973" stroke="#CECDC1"/>
<path d="M341.575 571.438V634.876H278.137" stroke="#CECDC1"/>
<path d="M246.601 602.973H278.136V634.873H246.601" stroke="#CECDC1"/>
<path d="M278.137 571.438V602.973" stroke="#CECDC1"/>
<path d="M341.575 634.875L278.137 602.973" stroke="#CECDC1"/>
<path d="M294.271 476.098L293.904 571.438" stroke="#CECDC1"/>
<path d="M246.235 729.848H151.262V682.175L198.932 634.875L246.232 682.545L246.235 729.848Z" stroke="#CECDC1"/>
<path d="M-7.51599 793.282V732.782M55.922 793.282H24.384" stroke="#CECDC1"/>
<path d="M50.422 634.875H55.922" stroke="#CECDC1"/>
<path d="M55.922 793.286L-7.51599 761.751" stroke="#CECDC1"/>
<path d="M182.797 761.751H150.895V793.286H182.797V761.751Z" stroke="#CECDC1"/>
<path d="M151.262 761.748V730.215M182.797 729.848V761.383" stroke="#CECDC1"/>
<path d="M182.797 793.285H246.235V729.848L182.797 761.748" stroke="#CECDC1"/>
<path d="M198.931 634.875V729.848" stroke="#CECDC1"/>
<path d="M341.574 635.609C349.727 635.658 357.533 638.919 363.298 644.685C369.064 650.45 372.325 658.256 372.374 666.409V697.944C372.374 706.113 369.129 713.947 363.353 719.723C357.577 725.499 349.743 728.744 341.574 728.744C333.405 728.744 325.571 725.499 319.795 719.723C314.019 713.947 310.774 706.113 310.774 697.944V666.409C310.405 649.543 324.34 635.609 341.574 635.609Z" stroke="#CECDC1"/>
<path d="M484.217 308.52C481.519 308.515 478.847 309.043 476.353 310.074C473.86 311.104 471.594 312.617 469.686 314.524C467.778 316.432 466.266 318.698 465.236 321.191C464.205 323.685 463.677 326.357 463.682 329.055V370.12C463.677 372.818 464.205 375.49 465.236 377.984C466.266 380.477 467.778 382.743 469.686 384.651C471.594 386.558 473.86 388.071 476.353 389.101C478.847 390.132 481.519 390.66 484.217 390.655C486.915 390.659 489.587 390.131 492.081 389.101C494.574 388.071 496.839 386.558 498.747 384.65C500.655 382.743 502.167 380.477 503.197 377.984C504.228 375.49 504.756 372.818 504.751 370.12V329.055C504.756 326.357 504.228 323.685 503.197 321.191C502.167 318.698 500.655 316.432 498.747 314.525C496.839 312.617 494.574 311.104 492.081 310.074C489.587 309.044 486.915 308.516 484.217 308.52Z" stroke="#CECDC1"/>
<path d="M246.234 729.848H341.574V793.286H278.134" stroke="#CECDC1"/>
<path d="M278.134 761.75L341.207 730.215M278.134 793.286H246.234" stroke="#CECDC1"/>
<path d="M246.234 682.545V634.875" stroke="#CECDC1"/>
<path d="M341.575 793.286L278.137 761.751" stroke="#CECDC1"/>
<path d="M262.002 793.286C259.927 793.301 257.87 792.903 255.951 792.116C254.031 791.329 252.287 790.168 250.82 788.701C249.353 787.234 248.193 785.489 247.406 783.57C246.62 781.65 246.222 779.593 246.238 777.518V745.618C246.271 741.458 247.947 737.48 250.9 734.55C253.854 731.62 257.845 729.976 262.005 729.976C266.166 729.976 270.157 731.62 273.111 734.55C276.064 737.48 277.74 741.458 277.773 745.618V777.518C278.138 786.318 270.803 793.286 262.002 793.286Z" stroke="#CECDC1"/>
<path d="M293.904 634.875V729.848" stroke="#CECDC1"/>
<path d="M198.928 888.625C186.393 888.594 174.38 883.6 165.516 874.736C156.653 865.873 151.659 853.86 151.628 841.325C151.628 828.779 156.612 816.748 165.483 807.877C174.354 799.006 186.385 794.022 198.931 794.022C211.476 794.022 223.508 799.006 232.379 807.877C241.25 816.748 246.234 828.779 246.234 841.325C246.203 853.861 241.209 865.875 232.344 874.739C223.479 883.603 211.464 888.595 198.928 888.625Z" stroke="#CECDC1"/>
<path d="M151.262 888.626H55.922V840.956L103.592 793.286L151.262 840.956V888.626Z" stroke="#CECDC1"/>
<path d="M-39.051 793.286H24.387V856.724" stroke="#CECDC1"/>
<path d="M55.922 840.956V793.286H151.262V840.956" stroke="#CECDC1"/>
<path d="M-39.051 793.286L24.387 825.188" stroke="#CECDC1"/>
<path d="M87.8239 920.161H56.2889V952.063H87.8239V920.161Z" stroke="#CECDC1"/>
<path d="M55.922 920.161V888.626M87.822 888.626V920.161" stroke="#CECDC1"/>
<path d="M151.262 888.626V952.064L87.824 920.164" stroke="#CECDC1"/>
<path d="M103.592 793.286V888.626" stroke="#CECDC1"/>
<path d="M55.922 952.059L-197.828 951.692V888.259H-134.028" stroke="#CECDC1"/>
<path d="M138.794 683.279C96.994 683.279 103.594 718.479 103.594 718.479C118.262 718.479 127.062 714.079 132.194 708.579C141.361 697.945 138.794 683.279 138.794 683.279Z" stroke="#CECDC1"/>
<path d="M68.756 683.279C110.556 683.279 103.956 718.479 103.956 718.479C61.789 718.479 68.756 683.279 68.756 683.279Z" stroke="#CECDC1"/>
<path d="M96.9911 723.615C55.1911 723.615 61.791 758.815 61.791 758.815C103.591 758.815 96.9911 723.615 96.9911 723.615Z" stroke="#CECDC1"/>
<path d="M110.193 723.615C151.993 723.615 145.393 758.815 145.393 758.815C103.592 758.815 110.193 723.615 110.193 723.615Z" stroke="#CECDC1"/>
<path d="M103.592 718.848V793.286" stroke="#CECDC1"/>
<path d="M97.725 793.286C69.856 793.286 74.257 769.818 74.257 769.818C102.125 769.818 97.725 793.286 97.725 793.286Z" stroke="#CECDC1"/>
<path d="M109.459 793.286C137.328 793.286 132.559 769.818 132.559 769.818C105.059 769.818 109.459 793.286 109.459 793.286Z" stroke="#CECDC1"/>
<path d="M103.591 657.977C85.6229 676.312 102.124 688.777 103.591 689.877C105.058 688.777 121.559 676.312 103.591 657.977Z" stroke="#CECDC1"/>
<path d="M29.52 604.073C34.287 604.44 48.588 629.741 45.288 637.809C38.688 653.577 42.721 665.678 52.255 678.878C54.822 682.545 57.755 691.345 50.788 693.546C39.054 697.213 55.188 704.18 47.488 710.046C43.821 712.98 48.955 720.313 44.554 723.98C42.721 725.447 45.287 733.514 42.721 737.914C38.687 744.514 30.621 744.148 23.286 742.681C15.219 741.214 7.88597 737.547 2.01797 736.447C-4.94903 734.98 -24.382 724.713 -31.351 721.413C-32.451 721.046 -36.485 718.846 -36.485 718.479C-36.852 717.012 -43.452 715.179 -44.919 707.479C-46.386 700.879 -47.486 693.179 -46.019 686.579C-43.085 672.279 -65.454 678.512 -58.486 689.513C-53.719 696.847 -41.618 685.113 -57.386 685.846C-66.553 686.213 -74.254 672.646 -74.254 663.846C-74.254 657.979 -74.254 653.212 -68.754 650.646C-51.886 642.946 -48.219 671.546 -46.386 673.014C-46.019 673.381 -44.553 682.548 -37.219 678.881C-30.252 675.214 -32.085 651.381 -18.884 650.646C-10.817 650.279 8.98496 642.212 15.585 637.446C25.485 630.112 30.619 626.079 32.453 612.878C32.82 609.211 29.886 604.078 29.519 604.078L29.52 604.073Z" stroke="#CECDC1"/>
<path d="M28.053 677.779C28.053 673.379 24.019 670.812 19.986 670.079C11.919 668.612 6.41797 675.579 6.41797 683.647C6.41797 690.614 8.25097 697.215 15.218 699.781C24.752 703.448 37.218 697.214 39.418 687.314C41.251 679.614 40.885 672.28 32.818 668.614C29.884 667.514 24.018 664.947 22.184 663.114" stroke="#CECDC1"/>
<path d="M22.186 663.477C23.653 663.477 28.053 666.411 33.186 665.677C33.919 665.677 36.12 665.31 36.486 665.31C36.486 664.943 32.819 663.477 31.719 660.176C31.5308 659.425 31.2857 658.69 30.986 657.976" stroke="#CECDC1"/>
<path d="M33.1869 653.576C33.9199 653.209 37.2209 649.542 35.7539 648.809C30.2539 646.609 21.8199 648.809 17.0539 652.476L16.3209 652.843" stroke="#CECDC1"/>
<path d="M46.753 669.344C56.287 656.144 50.053 658.71 50.053 642.209C50.053 620.209 55.553 627.175 40.886 605.54C32.086 591.972 29.886 589.772 14.118 584.272C13.385 583.905 -24.751 576.572 -25.482 576.572C-47.117 575.839 -44.55 574.739 -65.818 579.872C-89.286 585.739 -96.618 598.572 -106.887 619.108C-116.787 638.543 -116.787 653.944 -140.256 663.478C-153.456 668.978 -160.791 667.878 -166.291 666.045" stroke="#CECDC1"/>
<path d="M503.285 488.199C502.185 487.099 495.951 485.999 492.285 477.932C482.751 456.664 486.785 463.632 501.085 466.198C501.818 466.198 502.552 470.965 502.918 474.998C503.285 479.765 502.185 480.132 504.751 483.798C508.051 488.565 514.651 497.366 515.751 497.732C531.519 502.499 515.384 462.896 515.384 462.532C513.184 445.664 485.315 425.132 474.315 411.195C469.181 404.595 452.68 408.995 439.846 411.928C425.546 415.228 407.577 417.428 392.546 420.728C369.446 425.495 374.578 423.295 358.077 436.496C347.81 444.563 332.409 454.096 325.441 463.996C321.774 469.496 320.307 475.73 321.407 480.496C323.974 491.863 351.107 508.365 361.007 510.196C367.607 511.663 374.207 507.262 387.407 492.962C390.341 490.028 399.141 472.062 399.141 472.427C397.674 475.727 387.774 485.995 383.007 486.727C359.539 490.394 325.437 451.527 332.037 429.527" stroke="#CECDC1"/>
<path d="M450.114 431.729C478.349 426.229 462.214 430.262 485.683 436.496C504.018 441.263 520.883 450.064 537.02 459.596C548.02 466.563 559.388 466.196 544.72 472.796C529.686 479.763 467.715 439.796 452.314 459.228C446.814 465.828 457.814 474.628 467.348 476.462C483.116 479.396 491.183 483.796 499.983 499.197C500.35 499.93 501.083 509.464 497.049 503.597C497.049 503.23 444.979 489.663 440.949 488.929C436.949 488.171 433.023 487.067 429.215 485.629C408.677 477.932 417.477 474.998 399.144 469.498C392.177 467.298 381.91 474.265 376.776 478.298" stroke="#CECDC1"/>
<path d="M151.262 634.875L112.026 673.744" stroke="#CECDC1"/>
<path d="M55.922 634.875L95.158 673.744" stroke="#CECDC1"/>
<path d="M103.592 634.875V657.977" stroke="#CECDC1"/>
<path d="M55.922 793.286L-7.51599 761.751" stroke="#CECDC1"/>
<path d="M246.602 476.098L198.932 539.536L151.262 476.098" stroke="#CECDC1"/>
<path d="M55.922 856.723H-39.051M-39.051 888.623L8.61899 920.892L55.919 888.623" stroke="#CECDC1"/>
<path d="M8.61902 856.724V952.064" stroke="#CECDC1"/>
<path d="M151.262 870.291H55.922" stroke="#CECDC1"/>
<path d="M55.922 888.626L87.824 904.394" stroke="#CECDC1"/>
<path d="M182.796 729.848L151.261 761.75" stroke="#CECDC1"/>
<path d="M246.602 682.179L198.932 729.849L151.262 682.179" stroke="#CECDC1"/>
<path d="M310.772 683.279L246.234 651.01" stroke="#CECDC1"/>
<path d="M464.049 349.224H436.914V317.685L484.214 270.385L531.884 318.055V349.224H504.384" stroke="#CECDC1"/>
<path d="M341.574 413.027V448.963M246.601 412.661V381.492H341.574" stroke="#CECDC1"/>
<path d="M293.905 381.492C301.869 381.526 309.497 384.706 315.129 390.337C320.76 395.969 323.94 403.597 323.974 411.561V446.761C323.928 454.706 320.74 462.309 315.106 467.911C309.472 473.512 301.85 476.657 293.905 476.657C285.961 476.657 278.339 473.512 272.705 467.911C267.071 462.309 263.883 454.706 263.837 446.761V411.561C264.203 394.692 277.404 381.492 293.905 381.492Z" stroke="#CECDC1"/>
<path d="M264.202 428.795H246.601" stroke="#CECDC1"/>
<path d="M88.1909 158.544V82.639" stroke="#CECDC1"/>
<path d="M183.163 33.8691L151.628 19.201M246.601 63.937L215.066 49.2701" stroke="#CECDC1"/>
<path d="M-22.9161 158.544C-29.1796 158.532 -35.384 159.756 -41.1731 162.147C-46.9622 164.539 -52.2222 168.05 -56.6511 172.479C-61.0801 176.908 -64.5909 182.168 -66.982 187.957C-69.3731 193.746 -70.5976 199.95 -70.5851 206.214V261.951C-70.6004 268.167 -69.3874 274.324 -67.0157 280.07C-64.6441 285.816 -61.1606 291.036 -56.7653 295.431C-52.3701 299.827 -47.1497 303.31 -41.4041 305.682C-35.6585 308.053 -29.5009 309.266 -23.2851 309.251C-17.0693 309.266 -10.9117 308.053 -5.16605 305.682C0.579554 303.31 5.79994 299.827 10.1952 295.431C14.5905 291.036 18.074 285.816 20.4456 280.07C22.8172 274.324 24.0302 268.167 24.0149 261.951V206.214C24.1096 199.99 22.9658 193.809 20.65 188.031C18.3342 182.253 14.8927 176.993 10.5256 172.558C6.15855 168.122 0.953073 164.598 -4.78803 162.193C-10.5291 159.787 -16.6913 158.547 -22.9161 158.544Z" stroke="#CECDC1"/>
<path d="M46.385 150.11C40.8951 150.108 35.4587 151.188 30.3863 153.288C25.314 155.387 20.7051 158.466 16.8232 162.348C12.9413 166.23 9.86242 170.839 7.76252 175.911C5.66262 180.984 4.58286 186.42 4.58496 191.91V226.379C4.58286 231.869 5.66262 237.305 7.76252 242.378C9.86242 247.45 12.9413 252.059 16.8232 255.941C20.7051 259.823 25.314 262.902 30.3863 265.001C35.4587 267.101 40.8951 268.181 46.385 268.179C51.8748 268.181 57.3113 267.101 62.3836 265.001C67.456 262.902 72.0648 259.823 75.9467 255.941C79.8286 252.059 82.9075 247.45 85.0074 242.378C87.1073 237.305 88.1871 231.869 88.185 226.379V191.91C88.1871 186.42 87.1073 180.984 85.0074 175.911C82.9075 170.839 79.8286 166.23 75.9467 162.348C72.0648 158.466 67.456 155.387 62.3836 153.288C57.3113 151.188 51.8748 150.108 46.385 150.11Z" stroke="#CECDC1"/>
<path d="M46.388 233.715L46.021 327.588" stroke="#CECDC1"/>
<path d="M70.957 127.008L15.953 63.204" stroke="#CECDC1"/>
<path d="M-38.6841 127.008L15.9529 63.204" stroke="#CECDC1"/>
<path d="M151.262 301.55L198.932 254.25L246.232 301.92" stroke="#CECDC1"/>
<path d="M246.601 412.661H151.628V254.25M246.601 254.25V381.492" stroke="#CECDC1"/>
<path d="M198.931 254.25V412.661" stroke="#CECDC1"/>
<path d="M246.235 349.22L198.935 301.92L151.262 349.22" stroke="#CECDC1"/>
<path d="M151.262 396.89L198.932 349.59L246.232 397.26M151.262 444.563V413.028" stroke="#CECDC1"/>
<path d="M151.262 316.951L103.962 269.651L56.2889 316.951" stroke="#CECDC1"/>
<path d="M120.46 318.421H88.56C86.4848 318.405 84.4272 318.802 82.5068 319.589C80.5865 320.376 78.8418 321.537 77.3743 323.004C75.9068 324.471 74.7458 326.216 73.9587 328.136C73.1717 330.056 72.7744 332.114 72.79 334.189C72.7744 336.264 73.1716 338.321 73.9585 340.242C74.7454 342.162 75.9063 343.906 77.3736 345.373C78.8409 346.841 80.5854 348.002 82.5055 348.788C84.4256 349.575 86.483 349.973 88.558 349.957H120.458C122.533 349.973 124.59 349.575 126.511 348.788C128.431 348.002 130.175 346.841 131.642 345.373C133.11 343.906 134.271 342.162 135.057 340.242C135.844 338.321 136.242 336.264 136.226 334.189C136.195 330.017 134.525 326.024 131.575 323.074C128.624 320.123 124.632 318.452 120.46 318.421Z" stroke="#CECDC1"/>
<path d="M151.629 221.981H88.1909" stroke="#CECDC1"/>
<path d="M15.953 63.204V162.944" stroke="#CECDC1"/>
<path d="M103.958 318.421V221.981" stroke="#CECDC1"/>
<path d="M68.39 156.344L15.953 95.473" stroke="#CECDC1"/>
<path d="M-38.6841 158.911L15.9529 95.473" stroke="#CECDC1"/>
<path d="M34.654 151.21L15.953 129.209" stroke="#CECDC1"/>
<path d="M-10.449 160.011L15.953 129.209" stroke="#CECDC1"/>
<path d="M87.824 476.098L151.262 508" stroke="#CECDC1"/>
<path d="M87.824 476.098V571.438" stroke="#CECDC1"/>
<path d="M87.8239 428.429L72.0569 412.661L56.2889 428.429" stroke="#CECDC1"/>
<path d="M278.868 111.607L263.102 95.473L246.968 111.607" stroke="#CECDC1"/>
<path d="M341.574 222.715H246.601" stroke="#CECDC1"/>
<path d="M151.628 0.5H70.9559V158.911H151.628V0.5Z" stroke="#CECDC1"/>
<path d="M70.9559 37.536C64.0591 37.5623 57.4523 40.3138 52.5755 45.1906C47.6987 50.0674 44.9472 56.6742 44.9209 63.571C44.9472 70.4678 47.6987 77.0746 52.5755 81.9514C57.4523 86.8283 64.0591 89.5797 70.9559 89.606C77.8527 89.5797 84.4595 86.8283 89.3363 81.9514C94.2131 77.0746 96.9646 70.4678 96.9909 63.571C96.6209 49.27 85.2569 37.536 70.9559 37.536Z" stroke="#CECDC1"/>
<path d="M-38.6841 63.571H70.9569" stroke="#CECDC1"/>
<path d="M70.956 37.536L-7.14905 0.5" stroke="#CECDC1"/>
<path d="M151.629 95.473L119.726 127.373L88.1909 95.473" stroke="#CECDC1"/>
<path d="M278.136 587.206L262.369 571.438L246.601 587.206" stroke="#CECDC1"/>
<path d="M278.137 301.92V317.688" stroke="#CECDC1"/>
<path d="M341.574 317.688H246.601" stroke="#CECDC1"/>
<path d="M341.574 428.795H323.973" stroke="#CECDC1"/>
<path d="M341.574 45.97L246.601 0.5" stroke="#CECDC1"/>
<path d="M330.94 344.456C286.94 344.456 294.271 381.125 294.271 381.125C309.671 381.125 318.839 376.725 324.34 370.491C333.874 359.856 330.573 344.456 330.94 344.456Z" stroke="#CECDC1"/>
<path d="M257.235 344.456C301.235 344.456 293.904 381.125 293.904 381.125C250.268 381.492 257.235 344.456 257.235 344.456Z" stroke="#CECDC1"/>
<path d="M293.904 317.688C274.836 337.123 292.071 350.323 293.904 351.424C295.738 350.323 313.339 337.123 293.904 317.688Z" stroke="#CECDC1"/>
<path d="M119.726 158.544C83.79 194.844 116.426 219.781 119.726 221.982C123.026 219.781 155.658 194.844 119.726 158.544Z" stroke="#CECDC1"/>
<path d="M87.824 952.063H151.262" stroke="#CECDC1"/>
<path d="M151.262 682.178L150.895 634.875" stroke="#CECDC1"/>
<path d="M87.8239 412.661H56.2889" stroke="#CECDC1"/>
<path d="M-7.14905 0.5H70.956" stroke="#CECDC1"/>
<path d="M151.628 0.5H246.601" stroke="#CECDC1"/>
</g>
</g>
</g>
<defs>
<clipPath id="clip0_11_886">
<rect width="552" height="953" fill="white"/>
</clipPath>
<clipPath id="clip1_11_886">
<rect width="782.187" height="952.874" fill="white" transform="translate(-230)"/>
</clipPath>
</defs>
</svg>
