<?xml version="1.0" encoding="UTF-8"?>
<svg xmlns="http://www.w3.org/2000/svg" version="1.1" viewBox="0 0 800 800">
  <defs>
    <style>
      .cls-1 {
        fill: none;
        stroke: #000;
        stroke-linecap: round;
        stroke-linejoin: round;
        stroke-width: 16.7px;
      }
    </style>
  </defs>
  <!-- Generator: Adobe Illustrator 28.6.0, SVG Export Plug-In . SVG Version: 1.2.0 Build 709)  -->
  <g>
    <g id="Calque_1">
      <g id="b">
        <path class="cls-1" d="M321.8,207.8c-7.1-23.5-12-48-14.7-73.1-2.6-24.7-24.1-43-49-43h-115.2c-29.6,0-52.4,25.6-49.8,55.1,26.3,297.1,263,533.8,560.1,560.1,29.5,2.6,55.1-20.1,55.1-49.7v-102.7c0-37.5-18.4-58.9-43-61.6-25.1-2.7-49.5-7.6-73.1-14.7-28.8-8.6-59.9-.5-81.2,20.7l-49.3,49.3c-88.8-48-161.9-121.2-210-210l49.3-49.3c21.2-21.2,29.4-52.4,20.7-81.2h.1Z"/>
        <line class="cls-1" x1="436.5" y1="573.5" x2="461.8" y2="548.2"/>
        <line class="cls-1" x1="226.5" y1="363.6" x2="251.8" y2="338.2"/>
      </g>
    </g>
  </g>
</svg>